<?xml version="1.0" encoding="UTF-8" standalone="no"?>
<svg
   xmlns:dc="http://purl.org/dc/elements/1.1/"
   xmlns:cc="http://creativecommons.org/ns#"
   xmlns:rdf="http://www.w3.org/1999/02/22-rdf-syntax-ns#"
   xmlns:svg="http://www.w3.org/2000/svg"
   xmlns="http://www.w3.org/2000/svg"
   id="svg2"
   version="1.1"
   viewBox="0 0 115 35"
   height="35px"
   width="115px">
  <g
     style="fill:none;fill-rule:evenodd;stroke:none;stroke-width:1"
     id="Page-1">
    <g
       style="fill:#000000"
       transform="translate(0,1)"
       id="Pebble_Logo">
      <g
         id="Group">
        <path
           id="Shape"
           d="m 0.1,8.2 1.9,0 0,4.3 C 3.7,10 6.1,7.7 10,7.7 c 4.7,0 9.4,3.8 9.4,10.1 l 0,0.1 c 0,6.3 -4.8,10.2 -9.4,10.2 -3.9,0 -6.4,-2.2 -8,-4.6 l 0,10.3 -1.9,0 0,-25.6 0,0 z m 17.2,9.8 0,0 c 0,-5.2 -3.5,-8.4 -7.6,-8.4 -4,0 -7.9,3.4 -7.9,8.3 l 0,0.1 c 0,5 3.9,8.3 7.9,8.3 4.2,-0.1 7.6,-3.1 7.6,-8.3 l 0,0 z" />
        <path
           id="path14"
           d="m 46.5,23.4 0,4.2 -1.9,0 0,-27.8 1.9,0 0,12.7 c 1.7,-2.5 4.1,-4.8 8,-4.8 4.7,0 9.4,3.8 9.4,10.1 l 0,0.1 c 0,6.3 -4.8,10.2 -9.4,10.2 -3.9,-0.1 -6.4,-2.3 -8,-4.7 l 0,0 z m 15.4,-5.4 0,0 c 0,-5.2 -3.5,-8.4 -7.6,-8.4 -4,0 -7.9,3.4 -7.9,8.3 l 0,0.1 c 0,5 3.9,8.3 7.9,8.3 4.2,-0.1 7.6,-3.1 7.6,-8.3 l 0,0 z" />
        <path
           id="path16"
           d="m 69.5,23.4 0,4.2 -1.9,0 0,-27.8 1.9,0 0,12.7 c 1.7,-2.5 4.1,-4.8 8,-4.8 4.7,0 9.4,3.8 9.4,10.1 l 0,0.1 c 0,6.3 -4.8,10.2 -9.4,10.2 -3.9,-0.1 -6.4,-2.3 -8,-4.7 l 0,0 z m 15.4,-5.4 0,0 c 0,-5.2 -3.5,-8.4 -7.6,-8.4 -4,0 -7.9,3.4 -7.9,8.3 l 0,0.1 c 0,5 3.9,8.3 7.9,8.3 4.2,-0.1 7.6,-3.1 7.6,-8.3 l 0,0 z" />
        <path
           id="path18"
           d="m 90.6,-0.2 1.9,0 0,27.7 -1.9,0 0,-27.7 0,0 z" />
        <path
           id="path20"
           d="m 25.2,19.9 c 0.8,4.1 4,6.4 7.4,6.4 3,0 5.1,-1.3 6.7,-3 l 1.3,1.1 c -2,2.1 -4.3,3.7 -8,3.7 C 27.4,28 23,24 23,17.9 l 0,-0.1 c 0,-5.6 4,-10.1 9.2,-10.1 4.4,0 7.5,2.9 8.5,7.1 0.1,0.3 0.1,0.5 0.2,0.8 l -15.7,4.3 0,0 z m 13.5,-5.4 c -0.9,-2.8 -3,-5.1 -6.5,-5.1 -3.8,0 -6.8,3.2 -7.1,7.5 l 0,1.2 13.6,-3.6 0,0 z" />
        <path
           id="path22"
           d="m 98.3,19.9 c 0.8,4.1 4,6.4 7.4,6.4 3,0 5.1,-1.3 6.7,-3 l 1.3,1.1 c -2,2.1 -4.3,3.7 -8,3.7 -5.1,0 -9.5,-4.1 -9.5,-10.1 l 0,-0.1 c 0,-5.6 4,-10.1 9.2,-10.1 4.4,0 7.5,2.9 8.5,7.1 0.1,0.3 0.1,0.5 0.2,0.8 l -15.8,4.2 0,0 z m 13.5,-5.4 c -0.9,-2.8 -3,-5.1 -6.5,-5.1 -3.8,0 -6.8,3.2 -7.1,7.5 l 0,1.2 13.6,-3.6 0,0 z" />
      </g>
    </g>
  </g>
</svg>
