<svg xmlns="http://www.w3.org/2000/svg" xmlns:xlink="http://www.w3.org/1999/xlink"  height="35" width="115">
    <defs>
        <path id="pebble-logo" d="M.1 9.2H2v4.3c1.7-2.5 4.1-4.8 8-4.8 4.7 0 9.4 3.8 9.4 10.1v.1c0 6.3-4.8 10.2-9.4 10.2-3.9 0-6.4-2.2-8-4.6v10.3H.1V9.2zM17.3 19c0-5.2-3.5-8.4-7.6-8.4-4 0-7.9 3.4-7.9 8.3v.1c0 5 3.9 8.3 7.9 8.3 4.2-.1 7.6-3.1 7.6-8.3zM46.5 24.4v4.2h-1.9V.8h1.9v12.7c1.7-2.5 4.1-4.8 8-4.8 4.7 0 9.4 3.8 9.4 10.1v.1c0 6.3-4.8 10.2-9.4 10.2-3.9-.1-6.4-2.3-8-4.7zM61.9 19c0-5.2-3.5-8.4-7.6-8.4-4 0-7.9 3.4-7.9 8.3v.1c0 5 3.9 8.3 7.9 8.3 4.2-.1 7.6-3.1 7.6-8.3zM69.5 24.4v4.2h-1.9V.8h1.9v12.7c1.7-2.5 4.1-4.8 8-4.8 4.7 0 9.4 3.8 9.4 10.1v.1c0 6.3-4.8 10.2-9.4 10.2-3.9-.1-6.4-2.3-8-4.7zM84.9 19c0-5.2-3.5-8.4-7.6-8.4-4 0-7.9 3.4-7.9 8.3v.1c0 5 3.9 8.3 7.9 8.3 4.2-.1 7.6-3.1 7.6-8.3zM90.6.8h1.9v27.7h-1.9V.8zM25.2 20.9c.8 4.1 4 6.4 7.4 6.4 3 0 5.1-1.3 6.7-3l1.3 1.1c-2 2.1-4.3 3.7-8 3.7C27.4 29 23 25 23 18.9v-.1c0-5.6 4-10.1 9.2-10.1 4.4 0 7.5 2.9 8.5 7.1.1.3.1.5.2.8l-15.7 4.3zm13.5-5.4c-.9-2.8-3-5.1-6.5-5.1-3.8 0-6.8 3.2-7.1 7.5v1.2l13.6-3.6zM98.3 20.9c.8 4.1 4 6.4 7.4 6.4 3 0 5.1-1.3 6.7-3l1.3 1.1c-2 2.1-4.3 3.7-8 3.7-5.1 0-9.5-4.1-9.5-10.1v-.1c0-5.6 4-10.1 9.2-10.1 4.4 0 7.5 2.9 8.5 7.1.1.3.1.5.2.8l-15.8 4.2zm13.5-5.4c-.9-2.8-3-5.1-6.5-5.1-3.8 0-6.8 3.2-7.1 7.5v1.2l13.6-3.6z"/>
    </defs>
    <use transform='rotate(0)' xlink:href="#pebble-logo" />
</svg>